<svg width="16" height="14" viewBox="0 0 16 14" fill="none" xmlns="http://www.w3.org/2000/svg">
<path d="M15.3125 0.5C14.9961 0.5 14.75 0.78125 14.75 1.0625V13.4375C14.75 13.7539 14.9961 14 15.3125 14C15.5938 14 15.875 13.7539 15.875 13.4375V1.0625C15.875 0.78125 15.5938 0.5 15.3125 0.5ZM7.82422 1.80078C7.61328 1.58984 7.22656 1.58984 7.01562 1.80078C6.80469 2.01172 6.80469 2.39844 7.01562 2.60938L11.1289 6.6875H0.6875C0.371094 6.6875 0.125 6.96875 0.125 7.25C0.125 7.56641 0.371094 7.8125 0.6875 7.8125H11.1289L7.01562 11.9258C6.80469 12.1367 6.80469 12.5234 7.01562 12.7344C7.22656 12.9453 7.61328 12.9453 7.82422 12.7344L12.8867 7.67188C12.9922 7.56641 13.0625 7.42578 13.0625 7.25C13.0625 7.10938 12.9922 6.96875 12.8867 6.86328L7.82422 1.80078Z" fill="url(#paint0_linear_676_2943)"/>
<defs>
<linearGradient id="paint0_linear_676_2943" x1="-4" y1="-5" x2="-4" y2="19" gradientUnits="userSpaceOnUse">
<stop stop-color="#5EBBFF"/>
<stop offset="1" stop-color="#A174FF"/>
</linearGradient>
</defs>
</svg>
