<svg xmlns="http://www.w3.org/2000/svg" width="15" height="16" fill="none" viewBox="0 0 15 16"><path fill="#0093FC" d="M14.5 11.5V1.5C14.5 0.6875 13.8125 0 13 0H3C1.59375 0 0.5 1.125 0.5 2.5V14C0.5 15.125 1.375 16 2.5 16H14C14.25 16 14.5 15.7812 14.5 15.5C14.5 15.25 14.25 15 14 15H13.5V12.9375C14.0625 12.7188 14.5 12.1562 14.5 11.5ZM10.5 1V6.46875L8.78125 5.125C8.71875 5.0625 8.59375 5 8.5 5C8.375 5 8.25 5.0625 8.1875 5.125L6.5 6.46875V1H10.5ZM12.5 15H2.5C1.9375 15 1.5 14.5625 1.5 14C1.5 13.4688 1.9375 13 2.5 13H12.5V15ZM13 12H2.5C2.125 12 1.78125 12.125 1.5 12.2812V2.5C1.5 1.6875 2.15625 1 3 1H5.5V7.5C5.5 7.71875 5.59375 7.875 5.78125 7.96875C5.9375 8.0625 6.15625 8.03125 6.3125 7.90625L8.5 6.15625L10.6562 7.90625C10.75 7.96875 10.875 8 11 8C11.0625 8 11.125 8 11.1875 7.96875C11.375 7.875 11.5 7.71875 11.5 7.5V1H13C13.25 1 13.5 1.25 13.5 1.5V11.5C13.5 11.7812 13.25 12 13 12Z"/></svg>