<svg xmlns="http://www.w3.org/2000/svg" width="16" height="13" fill="none" viewBox="0 0 16 13"><path fill="url(#paint0_linear_652_1775)" d="M0.125 1.0625C0.125 0.78125 0.371094 0.5 0.6875 0.5H15.3125C15.5938 0.5 15.875 0.78125 15.875 1.0625C15.875 1.37891 15.5938 1.625 15.3125 1.625H0.6875C0.371094 1.625 0.125 1.37891 0.125 1.0625ZM0.125 6.6875C0.125 6.40625 0.371094 6.125 0.6875 6.125H15.3125C15.5938 6.125 15.875 6.40625 15.875 6.6875C15.875 7.00391 15.5938 7.25 15.3125 7.25H0.6875C0.371094 7.25 0.125 7.00391 0.125 6.6875ZM15.3125 12.875H0.6875C0.371094 12.875 0.125 12.6289 0.125 12.3125C0.125 12.0312 0.371094 11.75 0.6875 11.75H15.3125C15.5938 11.75 15.875 12.0312 15.875 12.3125C15.875 12.6289 15.5938 12.875 15.3125 12.875Z"/><defs><linearGradient id="paint0_linear_652_1775" x1="-4" x2="-4" y1="-5" y2="19" gradientUnits="userSpaceOnUse"><stop stop-color="#5EBBFF"/><stop offset="1" stop-color="#A174FF"/></linearGradient></defs></svg>